<svg width="793" height="728" viewBox="0 0 793 728" fill="none" xmlns="http://www.w3.org/2000/svg">
<g id="undraw_Recording_re_5xyq 1" clip-path="url(#clip0)">
<g id="Telefon">
<path id="Vector" d="M362.889 310.173H359.596V227.721C359.596 215.064 354.094 202.927 344.301 193.977C334.508 185.028 321.225 180 307.376 180H116.22C109.363 180 102.572 181.234 96.2364 183.632C89.9008 186.031 84.1441 189.546 79.295 193.977C74.4459 198.408 70.5994 203.669 67.975 209.459C65.3507 215.248 64 221.454 64 227.721V680.057C64 686.324 65.3507 692.529 67.975 698.319C70.5993 704.109 74.4458 709.37 79.2949 713.801C84.144 718.232 89.9007 721.747 96.2363 724.145C102.572 726.544 109.362 727.778 116.22 727.778H307.375C321.225 727.778 334.507 722.75 344.301 713.801C354.094 704.852 359.596 692.714 359.596 680.057V368.863H362.889V310.173Z" fill="#E6E6E6"/>
<path id="Vector_2" d="M309.483 192.415H284.53C285.678 194.986 286.116 197.775 285.806 200.537C285.496 203.299 284.447 205.949 282.753 208.254C281.058 210.558 278.769 212.446 276.088 213.752C273.406 215.058 270.415 215.741 267.376 215.741H157.866C154.828 215.741 151.836 215.058 149.155 213.752C146.473 212.446 144.184 210.558 142.49 208.254C140.795 205.949 139.746 203.299 139.436 200.537C139.126 197.775 139.564 194.986 140.712 192.415H117.407C107.064 192.415 97.1447 196.17 89.8313 202.853C82.5178 209.536 78.4092 218.601 78.4092 228.053V679.725C78.4092 684.405 79.4179 689.04 81.3777 693.363C83.3375 697.687 86.21 701.616 89.8312 704.925C93.4525 708.234 97.7515 710.859 102.483 712.65C107.214 714.441 112.285 715.363 117.407 715.363H309.483C314.604 715.363 319.675 714.441 324.406 712.65C329.138 710.859 333.437 708.234 337.058 704.925C340.679 701.616 343.552 697.687 345.511 693.363C347.471 689.04 348.48 684.405 348.48 679.725V679.725V228.053C348.48 223.373 347.471 218.739 345.511 214.415C343.552 210.091 340.679 206.162 337.058 202.853C333.437 199.544 329.138 196.919 324.406 195.128C319.675 193.337 314.604 192.415 309.483 192.415V192.415Z" fill="white"/>
<path id="Vector_3" d="M102.254 404.995C102.035 404.995 101.826 404.916 101.671 404.774C101.517 404.633 101.43 404.442 101.43 404.242V377.899C101.43 377.699 101.517 377.508 101.671 377.367C101.826 377.225 102.035 377.146 102.254 377.146C102.472 377.146 102.681 377.225 102.836 377.367C102.99 377.508 103.077 377.699 103.077 377.899V404.242C103.077 404.442 102.99 404.633 102.836 404.774C102.681 404.916 102.472 404.995 102.254 404.995Z" fill="#CCCCCC"/>
<path id="Vector_4" d="M108.019 409.135C107.801 409.135 107.591 409.055 107.437 408.914C107.282 408.773 107.195 408.582 107.195 408.382V373.759C107.195 373.559 107.282 373.368 107.437 373.227C107.591 373.086 107.801 373.006 108.019 373.006C108.237 373.006 108.447 373.086 108.601 373.227C108.756 373.368 108.843 373.559 108.843 373.759V408.382C108.843 408.582 108.756 408.773 108.601 408.914C108.447 409.055 108.237 409.135 108.019 409.135Z" fill="#CCCCCC"/>
<path id="Vector_5" d="M113.784 411.769C113.566 411.769 113.356 411.69 113.202 411.549C113.048 411.407 112.961 411.216 112.961 411.016V371.125C112.961 370.925 113.048 370.734 113.202 370.592C113.356 370.451 113.566 370.372 113.784 370.372C114.003 370.372 114.212 370.451 114.367 370.592C114.521 370.734 114.608 370.925 114.608 371.125V411.016C114.608 411.216 114.521 411.407 114.367 411.549C114.212 411.69 114.003 411.769 113.784 411.769Z" fill="#CCCCCC"/>
<path id="Vector_6" d="M119.55 418.543C119.331 418.543 119.122 418.464 118.967 418.323C118.813 418.181 118.726 417.99 118.726 417.79V364.351C118.726 364.151 118.813 363.96 118.967 363.818C119.122 363.677 119.331 363.598 119.55 363.598C119.768 363.598 119.978 363.677 120.132 363.818C120.287 363.96 120.374 364.151 120.374 364.351V417.79C120.374 417.99 120.287 418.181 120.132 418.323C119.978 418.464 119.768 418.543 119.55 418.543Z" fill="#CCCCCC"/>
<path id="Vector_7" d="M125.315 428.704C125.097 428.704 124.887 428.625 124.733 428.484C124.578 428.343 124.492 428.151 124.492 427.951V354.19C124.492 353.99 124.578 353.799 124.733 353.657C124.887 353.516 125.097 353.437 125.315 353.437C125.534 353.437 125.743 353.516 125.898 353.657C126.052 353.799 126.139 353.99 126.139 354.19V427.951C126.139 428.151 126.052 428.343 125.898 428.484C125.743 428.625 125.534 428.704 125.315 428.704Z" fill="#CCCCCC"/>
<path id="Vector_8" d="M131.081 418.543C130.862 418.543 130.653 418.464 130.498 418.323C130.344 418.181 130.257 417.99 130.257 417.79V364.351C130.257 364.151 130.344 363.96 130.498 363.818C130.653 363.677 130.862 363.598 131.081 363.598C131.299 363.598 131.509 363.677 131.663 363.818C131.818 363.96 131.904 364.151 131.904 364.351V417.79C131.904 417.99 131.818 418.181 131.663 418.323C131.509 418.464 131.299 418.543 131.081 418.543Z" fill="#CCCCCC"/>
<path id="Vector_9" d="M136.846 423.435C136.628 423.435 136.418 423.356 136.264 423.215C136.109 423.074 136.023 422.882 136.023 422.683V359.458C136.023 359.259 136.109 359.067 136.264 358.926C136.418 358.785 136.628 358.706 136.846 358.706C137.065 358.706 137.274 358.785 137.429 358.926C137.583 359.067 137.67 359.259 137.67 359.458V422.683C137.67 422.882 137.583 423.074 137.429 423.215C137.274 423.356 137.065 423.435 136.846 423.435Z" fill="#CCCCCC"/>
<path id="Vector_10" d="M142.612 410.64C142.393 410.64 142.184 410.561 142.029 410.42C141.875 410.278 141.788 410.087 141.788 409.887V372.254C141.788 372.054 141.875 371.863 142.029 371.721C142.184 371.58 142.393 371.501 142.612 371.501C142.83 371.501 143.04 371.58 143.194 371.721C143.349 371.863 143.435 372.054 143.435 372.254V409.887C143.435 410.087 143.349 410.278 143.194 410.42C143.04 410.561 142.83 410.64 142.612 410.64Z" fill="#CCCCCC"/>
<path id="Vector_11" d="M148.377 413.651C148.159 413.651 147.949 413.571 147.795 413.43C147.64 413.289 147.554 413.098 147.554 412.898V369.243C147.554 369.043 147.64 368.852 147.795 368.711C147.949 368.57 148.159 368.49 148.377 368.49C148.596 368.49 148.805 368.57 148.96 368.711C149.114 368.852 149.201 369.043 149.201 369.243V412.898C149.201 413.098 149.114 413.289 148.96 413.43C148.805 413.571 148.596 413.651 148.377 413.651Z" fill="#CCCCCC"/>
<path id="Vector_12" d="M154.143 404.995C153.924 404.995 153.715 404.916 153.56 404.774C153.406 404.633 153.319 404.442 153.319 404.242V377.899C153.319 377.699 153.406 377.508 153.56 377.367C153.715 377.225 153.924 377.146 154.143 377.146C154.361 377.146 154.571 377.225 154.725 377.367C154.88 377.508 154.966 377.699 154.966 377.899V404.242C154.966 404.442 154.88 404.633 154.725 404.774C154.571 404.916 154.361 404.995 154.143 404.995Z" fill="#CCCCCC"/>
<path id="Vector_13" d="M159.085 404.995C158.866 404.995 158.657 404.916 158.502 404.774C158.348 404.633 158.261 404.442 158.261 404.242V377.899C158.261 377.699 158.348 377.508 158.502 377.367C158.657 377.225 158.866 377.146 159.085 377.146C159.303 377.146 159.512 377.225 159.667 377.367C159.821 377.508 159.908 377.699 159.908 377.899V404.242C159.908 404.442 159.821 404.633 159.667 404.774C159.512 404.916 159.303 404.995 159.085 404.995Z" fill="#CCCCCC"/>
<path id="Vector_14" d="M164.85 409.135C164.632 409.135 164.422 409.055 164.268 408.914C164.113 408.773 164.026 408.582 164.026 408.382V373.759C164.026 373.559 164.113 373.368 164.268 373.227C164.422 373.086 164.632 373.006 164.85 373.006C165.068 373.006 165.278 373.086 165.432 373.227C165.587 373.368 165.674 373.559 165.674 373.759V408.382C165.674 408.582 165.587 408.773 165.432 408.914C165.278 409.055 165.068 409.135 164.85 409.135Z" fill="#CCCCCC"/>
<path id="Vector_15" d="M170.615 411.769C170.397 411.769 170.187 411.69 170.033 411.549C169.879 411.407 169.792 411.216 169.792 411.016V371.125C169.792 370.925 169.879 370.734 170.033 370.592C170.187 370.451 170.397 370.372 170.615 370.372C170.834 370.372 171.043 370.451 171.198 370.592C171.352 370.734 171.439 370.925 171.439 371.125V411.016C171.439 411.216 171.352 411.407 171.198 411.549C171.043 411.69 170.834 411.769 170.615 411.769Z" fill="#CCCCCC"/>
<path id="Vector_16" d="M176.381 418.543C176.162 418.543 175.953 418.464 175.799 418.323C175.644 418.181 175.557 417.99 175.557 417.79V364.351C175.557 364.151 175.644 363.96 175.799 363.818C175.953 363.677 176.162 363.598 176.381 363.598C176.599 363.598 176.809 363.677 176.963 363.818C177.118 363.96 177.205 364.151 177.205 364.351V417.79C177.205 417.99 177.118 418.181 176.963 418.323C176.809 418.464 176.599 418.543 176.381 418.543Z" fill="#CCCCCC"/>
<path id="Vector_17" d="M182.146 440.747C181.928 440.747 181.718 440.668 181.564 440.526C181.409 440.385 181.323 440.194 181.323 439.994V342.147C181.323 341.947 181.409 341.756 181.564 341.615C181.718 341.473 181.928 341.394 182.146 341.394C182.365 341.394 182.574 341.473 182.729 341.615C182.883 341.756 182.97 341.947 182.97 342.147V439.994C182.97 440.194 182.883 440.385 182.729 440.526C182.574 440.668 182.365 440.747 182.146 440.747Z" fill="#CCCCCC"/>
<path id="Vector_18" d="M187.912 418.543C187.693 418.543 187.484 418.464 187.329 418.323C187.175 418.181 187.088 417.99 187.088 417.79V364.351C187.088 364.151 187.175 363.96 187.329 363.818C187.484 363.677 187.693 363.598 187.912 363.598C188.13 363.598 188.34 363.677 188.494 363.818C188.649 363.96 188.735 364.151 188.735 364.351V417.79C188.735 417.99 188.649 418.181 188.494 418.323C188.34 418.464 188.13 418.543 187.912 418.543Z" fill="#CCCCCC"/>
<path id="Vector_19" d="M193.677 423.435C193.459 423.435 193.249 423.356 193.095 423.215C192.94 423.074 192.854 422.882 192.854 422.683V359.458C192.854 359.259 192.94 359.067 193.095 358.926C193.249 358.785 193.459 358.706 193.677 358.706C193.896 358.706 194.105 358.785 194.26 358.926C194.414 359.067 194.501 359.259 194.501 359.458V422.683C194.501 422.882 194.414 423.074 194.26 423.215C194.105 423.356 193.896 423.435 193.677 423.435Z" fill="#CCCCCC"/>
<path id="Vector_20" d="M199.443 410.64C199.224 410.64 199.015 410.561 198.86 410.42C198.706 410.278 198.619 410.087 198.619 409.887V372.254C198.619 372.054 198.706 371.863 198.86 371.721C199.015 371.58 199.224 371.501 199.443 371.501C199.661 371.501 199.871 371.58 200.025 371.721C200.18 371.863 200.266 372.054 200.266 372.254V409.887C200.266 410.087 200.18 410.278 200.025 410.42C199.871 410.561 199.661 410.64 199.443 410.64Z" fill="#CCCCCC"/>
<path id="Vector_21" d="M205.208 413.651C204.99 413.651 204.78 413.571 204.626 413.43C204.471 413.289 204.385 413.098 204.385 412.898V369.243C204.385 369.043 204.471 368.852 204.626 368.711C204.78 368.57 204.99 368.49 205.208 368.49C205.427 368.49 205.636 368.57 205.791 368.711C205.945 368.852 206.032 369.043 206.032 369.243V412.898C206.032 413.098 205.945 413.289 205.791 413.43C205.636 413.571 205.427 413.651 205.208 413.651Z" fill="#CCCCCC"/>
<path id="Vector_22" d="M210.974 404.995C210.755 404.995 210.546 404.916 210.391 404.774C210.237 404.633 210.15 404.442 210.15 404.242V377.899C210.15 377.699 210.237 377.508 210.391 377.367C210.546 377.225 210.755 377.146 210.974 377.146C211.192 377.146 211.402 377.225 211.556 377.367C211.711 377.508 211.797 377.699 211.797 377.899V404.242C211.797 404.442 211.711 404.633 211.556 404.774C211.402 404.916 211.192 404.995 210.974 404.995Z" fill="#CCCCCC"/>
<path id="Vector_23" d="M215.916 404.995C215.697 404.995 215.488 404.916 215.333 404.774C215.179 404.633 215.092 404.442 215.092 404.242V377.899C215.092 377.699 215.179 377.508 215.333 377.367C215.488 377.225 215.697 377.146 215.916 377.146C216.134 377.146 216.343 377.225 216.498 377.367C216.652 377.508 216.739 377.699 216.739 377.899V404.242C216.739 404.442 216.652 404.633 216.498 404.774C216.343 404.916 216.134 404.995 215.916 404.995Z" fill="#CCCCCC"/>
<path id="Vector_24" d="M221.681 409.135C221.463 409.135 221.253 409.055 221.099 408.914C220.944 408.773 220.857 408.582 220.857 408.382V373.759C220.857 373.559 220.944 373.368 221.099 373.227C221.253 373.086 221.463 373.006 221.681 373.006C221.899 373.006 222.109 373.086 222.263 373.227C222.418 373.368 222.505 373.559 222.505 373.759V408.382C222.505 408.582 222.418 408.773 222.263 408.914C222.109 409.055 221.899 409.135 221.681 409.135Z" fill="#CCCCCC"/>
<path id="Vector_25" d="M227.446 411.769C227.228 411.769 227.018 411.69 226.864 411.549C226.71 411.407 226.623 411.216 226.623 411.016V371.125C226.623 370.925 226.71 370.734 226.864 370.592C227.018 370.451 227.228 370.372 227.446 370.372C227.665 370.372 227.874 370.451 228.029 370.592C228.183 370.734 228.27 370.925 228.27 371.125V411.016C228.27 411.216 228.183 411.407 228.029 411.549C227.874 411.69 227.665 411.769 227.446 411.769Z" fill="#CCCCCC"/>
<path id="Vector_26" d="M233.212 418.543C232.993 418.543 232.784 418.464 232.629 418.323C232.475 418.181 232.388 417.99 232.388 417.79V364.351C232.388 364.151 232.475 363.96 232.629 363.818C232.784 363.677 232.993 363.598 233.212 363.598C233.43 363.598 233.64 363.677 233.794 363.818C233.949 363.96 234.036 364.151 234.036 364.351V417.79C234.036 417.99 233.949 418.181 233.794 418.323C233.64 418.464 233.43 418.543 233.212 418.543Z" fill="#CCCCCC"/>
<path id="Vector_27" d="M238.977 428.704C238.759 428.704 238.549 428.625 238.395 428.484C238.24 428.343 238.154 428.151 238.154 427.951V354.19C238.154 353.99 238.24 353.799 238.395 353.657C238.549 353.516 238.759 353.437 238.977 353.437C239.196 353.437 239.405 353.516 239.56 353.657C239.714 353.799 239.801 353.99 239.801 354.19V427.951C239.801 428.151 239.714 428.343 239.56 428.484C239.405 428.625 239.196 428.704 238.977 428.704Z" fill="#CCCCCC"/>
<path id="Vector_28" d="M243.096 462.01C242.877 462.01 242.668 461.931 242.513 461.789C242.359 461.648 242.272 461.457 242.272 461.257V320.884C242.272 320.684 242.359 320.493 242.513 320.352C242.668 320.21 242.877 320.131 243.096 320.131C243.314 320.131 243.523 320.21 243.678 320.352C243.832 320.493 243.919 320.684 243.919 320.884V461.257C243.919 461.457 243.832 461.648 243.678 461.789C243.523 461.931 243.314 462.01 243.096 462.01Z" fill="#6C63FF"/>
<path id="Vector_29" d="M244.743 418.543C244.524 418.543 244.315 418.464 244.16 418.323C244.006 418.181 243.919 417.99 243.919 417.79V364.351C243.919 364.151 244.006 363.96 244.16 363.818C244.315 363.677 244.524 363.598 244.743 363.598C244.961 363.598 245.171 363.677 245.325 363.818C245.48 363.96 245.566 364.151 245.566 364.351V417.79C245.566 417.99 245.48 418.181 245.325 418.323C245.171 418.464 244.961 418.543 244.743 418.543Z" fill="#CCCCCC"/>
<path id="Vector_30" d="M250.508 423.435C250.29 423.435 250.08 423.356 249.926 423.215C249.771 423.074 249.685 422.882 249.685 422.683V359.458C249.685 359.259 249.771 359.067 249.926 358.926C250.08 358.785 250.29 358.706 250.508 358.706C250.727 358.706 250.936 358.785 251.091 358.926C251.245 359.067 251.332 359.259 251.332 359.458V422.683C251.332 422.882 251.245 423.074 251.091 423.215C250.936 423.356 250.727 423.435 250.508 423.435Z" fill="#CCCCCC"/>
<path id="Vector_31" d="M256.274 410.64C256.055 410.64 255.846 410.561 255.691 410.42C255.537 410.278 255.45 410.087 255.45 409.887V372.254C255.45 372.054 255.537 371.863 255.691 371.721C255.846 371.58 256.055 371.501 256.274 371.501C256.492 371.501 256.702 371.58 256.856 371.721C257.011 371.863 257.097 372.054 257.097 372.254V409.887C257.097 410.087 257.011 410.278 256.856 410.42C256.702 410.561 256.492 410.64 256.274 410.64Z" fill="#CCCCCC"/>
<path id="Vector_32" d="M262.039 413.651C261.821 413.651 261.611 413.571 261.457 413.43C261.302 413.289 261.216 413.098 261.216 412.898V369.243C261.216 369.043 261.302 368.852 261.457 368.711C261.611 368.57 261.821 368.49 262.039 368.49C262.258 368.49 262.467 368.57 262.622 368.711C262.776 368.852 262.863 369.043 262.863 369.243V412.898C262.863 413.098 262.776 413.289 262.622 413.43C262.467 413.571 262.258 413.651 262.039 413.651Z" fill="#CCCCCC"/>
<path id="Vector_33" d="M267.805 404.995C267.586 404.995 267.377 404.916 267.222 404.774C267.068 404.633 266.981 404.442 266.981 404.242V377.899C266.981 377.699 267.068 377.508 267.222 377.367C267.377 377.225 267.586 377.146 267.805 377.146C268.023 377.146 268.233 377.225 268.387 377.367C268.542 377.508 268.628 377.699 268.628 377.899V404.242C268.628 404.442 268.542 404.633 268.387 404.774C268.233 404.916 268.023 404.995 267.805 404.995Z" fill="#CCCCCC"/>
<path id="Vector_34" d="M272.747 404.995C272.528 404.995 272.319 404.916 272.164 404.774C272.01 404.633 271.923 404.442 271.923 404.242V377.899C271.923 377.699 272.01 377.508 272.164 377.367C272.319 377.225 272.528 377.146 272.747 377.146C272.965 377.146 273.174 377.225 273.329 377.367C273.483 377.508 273.57 377.699 273.57 377.899V404.242C273.57 404.442 273.483 404.633 273.329 404.774C273.174 404.916 272.965 404.995 272.747 404.995Z" fill="#CCCCCC"/>
<path id="Vector_35" d="M278.512 409.135C278.294 409.135 278.084 409.055 277.93 408.914C277.775 408.773 277.688 408.582 277.688 408.382V373.759C277.688 373.559 277.775 373.368 277.93 373.227C278.084 373.086 278.294 373.006 278.512 373.006C278.73 373.006 278.94 373.086 279.094 373.227C279.249 373.368 279.336 373.559 279.336 373.759V408.382C279.336 408.582 279.249 408.773 279.094 408.914C278.94 409.055 278.73 409.135 278.512 409.135Z" fill="#CCCCCC"/>
<path id="Vector_36" d="M284.277 411.769C284.059 411.769 283.849 411.69 283.695 411.549C283.541 411.407 283.454 411.216 283.454 411.016V371.125C283.454 370.925 283.541 370.734 283.695 370.592C283.849 370.451 284.059 370.372 284.277 370.372C284.496 370.372 284.705 370.451 284.86 370.592C285.014 370.734 285.101 370.925 285.101 371.125V411.016C285.101 411.216 285.014 411.407 284.86 411.549C284.705 411.69 284.496 411.769 284.277 411.769Z" fill="#CCCCCC"/>
<path id="Vector_37" d="M290.043 418.543C289.824 418.543 289.615 418.464 289.46 418.323C289.306 418.181 289.219 417.99 289.219 417.79V364.351C289.219 364.151 289.306 363.96 289.46 363.818C289.615 363.677 289.824 363.598 290.043 363.598C290.261 363.598 290.471 363.677 290.625 363.818C290.78 363.96 290.867 364.151 290.867 364.351V417.79C290.867 417.99 290.78 418.181 290.625 418.323C290.471 418.464 290.261 418.543 290.043 418.543Z" fill="#CCCCCC"/>
<path id="Vector_38" d="M295.808 440.747C295.59 440.747 295.38 440.668 295.226 440.526C295.071 440.385 294.985 440.194 294.985 439.994V342.147C294.985 341.947 295.071 341.756 295.226 341.615C295.38 341.473 295.59 341.394 295.808 341.394C296.027 341.394 296.236 341.473 296.391 341.615C296.545 341.756 296.632 341.947 296.632 342.147V439.994C296.632 440.194 296.545 440.385 296.391 440.526C296.236 440.668 296.027 440.747 295.808 440.747Z" fill="#CCCCCC"/>
<path id="Vector_39" d="M301.574 418.543C301.355 418.543 301.146 418.464 300.991 418.323C300.837 418.181 300.75 417.99 300.75 417.79V364.351C300.75 364.151 300.837 363.96 300.991 363.818C301.146 363.677 301.355 363.598 301.574 363.598C301.792 363.598 302.002 363.677 302.156 363.818C302.311 363.96 302.397 364.151 302.397 364.351V417.79C302.397 417.99 302.311 418.181 302.156 418.323C302.002 418.464 301.792 418.543 301.574 418.543Z" fill="#CCCCCC"/>
<path id="Vector_40" d="M307.339 423.435C307.121 423.435 306.911 423.356 306.757 423.215C306.602 423.074 306.516 422.882 306.516 422.683V359.458C306.516 359.259 306.602 359.067 306.757 358.926C306.911 358.785 307.121 358.706 307.339 358.706C307.558 358.706 307.767 358.785 307.922 358.926C308.076 359.067 308.163 359.259 308.163 359.458V422.683C308.163 422.882 308.076 423.074 307.922 423.215C307.767 423.356 307.558 423.435 307.339 423.435Z" fill="#CCCCCC"/>
<path id="Vector_41" d="M313.105 410.64C312.886 410.64 312.677 410.561 312.522 410.42C312.368 410.278 312.281 410.087 312.281 409.887V372.254C312.281 372.054 312.368 371.863 312.522 371.721C312.677 371.58 312.886 371.501 313.105 371.501C313.323 371.501 313.533 371.58 313.687 371.721C313.842 371.863 313.928 372.054 313.928 372.254V409.887C313.928 410.087 313.842 410.278 313.687 410.42C313.533 410.561 313.323 410.64 313.105 410.64Z" fill="#CCCCCC"/>
<path id="Vector_42" d="M318.87 413.651C318.652 413.651 318.442 413.571 318.288 413.43C318.133 413.289 318.047 413.098 318.047 412.898V369.243C318.047 369.043 318.133 368.852 318.288 368.711C318.442 368.57 318.652 368.49 318.87 368.49C319.089 368.49 319.298 368.57 319.453 368.711C319.607 368.852 319.694 369.043 319.694 369.243V412.898C319.694 413.098 319.607 413.289 319.453 413.43C319.298 413.571 319.089 413.651 318.87 413.651Z" fill="#CCCCCC"/>
<path id="Vector_43" d="M324.636 404.995C324.417 404.995 324.208 404.916 324.053 404.774C323.899 404.633 323.812 404.442 323.812 404.242V377.899C323.812 377.699 323.899 377.508 324.053 377.367C324.208 377.225 324.417 377.146 324.636 377.146C324.854 377.146 325.064 377.225 325.218 377.367C325.373 377.508 325.459 377.699 325.459 377.899V404.242C325.459 404.442 325.373 404.633 325.218 404.774C325.064 404.916 324.854 404.995 324.636 404.995Z" fill="#CCCCCC"/>
<path id="Vector_44" d="M125.315 586.782V613.652L148.377 600.217L125.315 586.782Z" fill="#3F3D56"/>
<path id="Vector_45" d="M223.458 610.876C229.882 605.011 229.868 595.482 223.428 589.591C216.987 583.7 206.56 583.679 200.136 589.543C193.713 595.408 193.727 604.937 200.167 610.828C206.607 616.719 217.035 616.74 223.458 610.876Z" fill="#6C63FF"/>
<path id="Vector_46" d="M283.693 612.252H278.051C277.303 612.252 276.586 611.981 276.056 611.499C275.526 611.016 275.228 610.362 275.226 609.678V590.756C275.228 590.072 275.526 589.416 276.055 588.933C276.585 588.449 277.302 588.176 278.051 588.174H283.693C284.442 588.174 285.16 588.446 285.69 588.93C286.22 589.415 286.518 590.071 286.518 590.756V609.686C286.517 610.024 286.443 610.358 286.3 610.67C286.158 610.982 285.949 611.265 285.687 611.504C285.425 611.742 285.113 611.931 284.771 612.059C284.429 612.188 284.063 612.253 283.693 612.252V612.252ZM301.574 609.686V590.756C301.574 590.073 301.277 589.417 300.749 588.933C300.221 588.449 299.505 588.176 298.757 588.174H293.107C292.358 588.176 291.641 588.449 291.112 588.933C290.582 589.416 290.284 590.072 290.282 590.756V609.686C290.284 610.369 290.583 611.024 291.112 611.506C291.642 611.989 292.359 612.26 293.107 612.26H298.757C299.127 612.26 299.493 612.193 299.835 612.064C300.177 611.935 300.487 611.745 300.749 611.506C301.01 611.267 301.218 610.983 301.359 610.671C301.501 610.358 301.574 610.024 301.574 609.686H301.574Z" fill="#3F3D56"/>
<path id="Vector_47" d="M285.634 482.154H141.255C140.996 482.153 140.747 482.059 140.564 481.891C140.38 481.723 140.277 481.495 140.277 481.258C140.277 481.021 140.38 480.793 140.564 480.625C140.747 480.457 140.996 480.362 141.255 480.362H285.634C285.894 480.362 286.144 480.456 286.327 480.624C286.511 480.792 286.615 481.02 286.615 481.258C286.615 481.495 286.511 481.723 286.327 481.891C286.144 482.06 285.894 482.154 285.634 482.154V482.154Z" fill="#CCCCCC"/>
<path id="Vector_48" d="M285.634 301.513H141.255C140.996 301.512 140.747 301.417 140.564 301.249C140.38 301.081 140.277 300.854 140.277 300.617C140.277 300.379 140.38 300.152 140.564 299.984C140.747 299.816 140.996 299.721 141.255 299.72H285.634C285.894 299.721 286.142 299.816 286.326 299.984C286.509 300.152 286.612 300.379 286.612 300.617C286.612 300.854 286.509 301.081 286.326 301.249C286.142 301.417 285.894 301.512 285.634 301.513V301.513Z" fill="#CCCCCC"/>
</g>
<path id="parca1" d="M552.63 317.472C552.508 317.472 552.386 317.464 552.264 317.448L518.071 312.959C517.569 312.892 517.095 312.692 516.697 312.38C516.3 312.067 515.993 311.654 515.809 311.182C515.626 310.711 515.572 310.199 515.654 309.7C515.736 309.201 515.95 308.732 516.274 308.344L540.109 279.941C540.433 279.55 540.856 279.253 541.335 279.082C541.813 278.911 542.329 278.873 542.827 278.971C543.326 279.069 543.788 279.3 544.167 279.639C544.545 279.978 544.824 280.413 544.976 280.898L555.324 313.793C555.458 314.216 555.49 314.665 555.418 315.103C555.346 315.541 555.172 315.956 554.909 316.315C554.647 316.673 554.304 316.964 553.908 317.165C553.512 317.366 553.075 317.471 552.63 317.472L552.63 317.472Z" fill="#F2F2F2"/>
<path id="parca2" d="M488.589 471.417C487.846 471.417 487.134 471.124 486.605 470.603C486.076 470.081 485.774 469.373 485.764 468.63L485.323 431.555C485.313 431.047 485.441 430.546 485.692 430.104C485.944 429.663 486.31 429.298 486.752 429.047C487.194 428.796 487.695 428.67 488.203 428.68C488.711 428.691 489.206 428.838 489.637 429.107L518.928 447.307C519.332 447.557 519.666 447.905 519.9 448.318C520.134 448.732 520.26 449.198 520.266 449.673C520.272 450.148 520.159 450.617 519.936 451.036C519.713 451.456 519.388 451.813 518.991 452.073L490.134 470.959C489.686 471.251 489.165 471.41 488.63 471.417H488.589Z" fill="#F2F2F2"/>
<path id="parca3" d="M760.589 528.417C759.846 528.417 759.134 528.124 758.605 527.603C758.076 527.081 757.774 526.373 757.764 525.63L757.323 488.555C757.313 488.047 757.441 487.546 757.692 487.104C757.944 486.663 758.31 486.298 758.752 486.047C759.194 485.796 759.695 485.67 760.203 485.68C760.711 485.691 761.206 485.838 761.637 486.107L790.928 504.307C791.332 504.557 791.666 504.905 791.9 505.318C792.134 505.732 792.26 506.198 792.266 506.673C792.272 507.148 792.159 507.617 791.936 508.036C791.713 508.456 791.388 508.813 790.991 509.073L762.134 527.959C761.686 528.251 761.165 528.41 760.63 528.417H760.589Z" fill="#F2F2F2"/>
<path id="Vector_49" d="M576.659 705.709H600.303V720.596H561.772C561.772 718.641 562.158 716.705 562.906 714.899C563.654 713.092 564.75 711.451 566.133 710.069C567.515 708.687 569.156 707.59 570.962 706.842C572.768 706.094 574.704 705.709 576.659 705.709V705.709Z" fill="#2F2E41"/>
<g id="Ablam&#196;&#177;z">
<path id="Vector_50" d="M618.19 403.649C610.08 399.924 604.749 389.272 605.053 378.768C605.356 368.263 610.884 358.439 618.509 353.43C622.226 351.048 626.476 349.627 630.878 349.294C635.28 348.962 639.695 349.728 643.728 351.524C651.911 355.007 662.897 355.956 667.815 364.613C671.595 371.266 670.233 386.108 667.557 393.505C665.244 399.899 659.589 403.502 654.074 405.518C647.97 407.729 641.462 408.604 634.99 408.083C628.518 407.561 622.234 405.656 616.563 402.496" fill="#2F2E41"/>
<path id="Vector_51" d="M707.894 697.404L696.404 701.68L674.442 659.397L691.399 653.086L707.894 697.404Z" fill="#FFB8B8"/>
<path id="Vector_52" d="M686.975 701.452L709.134 693.204L714.327 707.156L678.216 720.596C677.534 718.764 677.22 716.816 677.291 714.862C677.362 712.908 677.817 710.988 678.631 709.21C679.444 707.432 680.6 705.832 682.031 704.501C683.463 703.17 685.143 702.134 686.975 701.452Z" fill="#2F2E41"/>
<path id="Vector_53" d="M597.676 709.212H585.416L579.584 661.924H597.678L597.676 709.212Z" fill="#FFB8B8"/>
<path id="Vector_54" d="M560.399 538.758C561.961 538.59 563.467 538.082 564.811 537.269C566.155 536.456 567.304 535.359 568.178 534.054C569.052 532.749 569.629 531.269 569.869 529.716C570.108 528.164 570.005 526.579 569.565 525.071L609.893 455.498L595.788 449.857L555.475 517.879C552.991 518.786 550.925 520.571 549.67 522.898C548.415 525.226 548.057 527.932 548.664 530.506C549.271 533.079 550.801 535.341 552.964 536.862C555.127 538.383 557.772 539.057 560.399 538.758V538.758Z" fill="#FFB8B8"/>
<path id="Vector_55" d="M600.835 480.231L579.402 466.913L599.613 430.085C600.502 428.464 601.707 427.039 603.157 425.892C604.607 424.746 606.273 423.902 608.055 423.41C609.836 422.919 611.699 422.789 613.531 423.03C615.364 423.271 617.13 423.877 618.724 424.812C620.319 425.747 621.71 426.992 622.814 428.474C623.919 429.956 624.716 431.645 625.156 433.44C625.597 435.235 625.673 437.1 625.381 438.925C625.088 440.75 624.432 442.498 623.452 444.066L600.835 480.231Z" fill="#2F2E41"/>
<path id="Vector_56" d="M682.672 677.125C681.84 677.125 681.025 676.893 680.317 676.455C679.61 676.018 679.038 675.392 678.666 674.648L625.345 564.894C625.017 564.247 624.496 563.718 623.855 563.38C623.213 563.042 622.482 562.911 621.763 563.006C621.044 563.102 620.373 563.418 619.841 563.912C619.31 564.405 618.945 565.051 618.797 565.761L599.8 670.367C599.588 671.38 599.034 672.29 598.232 672.944C597.43 673.598 596.428 673.957 595.393 673.961H583.291C582.167 673.966 581.082 673.548 580.252 672.791C579.421 672.033 578.906 670.991 578.809 669.871C571.374 588.286 575.397 528.916 590.767 493.412C591.202 492.425 591.974 491.626 592.946 491.159C593.917 490.692 595.024 490.587 596.066 490.863L657.505 507.368C658.279 507.577 658.983 507.987 659.545 508.558C660.107 509.129 660.506 509.84 660.702 510.616L699.21 667.687C699.488 668.799 699.331 669.975 698.772 670.976C698.213 671.976 697.293 672.726 696.2 673.072L684.039 676.913C683.597 677.053 683.136 677.125 682.672 677.125V677.125Z" fill="#2F2E41"/>
<path id="Vector_57" d="M634.947 413.608C648.512 413.608 659.508 402.612 659.508 389.047C659.508 375.483 648.512 364.486 634.947 364.486C621.383 364.486 610.386 375.483 610.386 389.047C610.386 402.612 621.383 413.608 634.947 413.608Z" fill="#FFB8B8"/>
<path id="Vector_58" d="M658.144 424.961C658.144 424.961 636.144 412.961 619.144 425.961C619.144 425.961 597.644 447.461 604.644 468.461L587.144 517.961C600.991 544.217 641.529 539.966 661.144 517.961L659.644 470.461L658.144 424.961Z" fill="#6C63FF"/>
<path id="Vector_59" d="M672.07 557.186C668.244 557.291 664.451 556.447 661.029 554.732C655.628 551.834 652.304 546.383 651.149 538.533C649.221 525.421 650.81 507.397 652.492 488.314C654.679 463.496 656.941 437.834 650.885 423.711C650.569 422.968 650.459 422.153 650.568 421.352C650.676 420.552 650.998 419.795 651.5 419.163C652.003 418.53 652.666 418.044 653.421 417.757C654.176 417.47 654.995 417.392 655.79 417.53L673.016 420.5C673.912 420.658 674.74 421.083 675.392 421.719C676.043 422.355 676.487 423.173 676.666 424.066L700.545 545.372C700.741 546.354 700.603 547.374 700.151 548.269C699.7 549.164 698.963 549.882 698.056 550.309C692.855 552.757 682.059 557.186 672.07 557.186Z" fill="#2F2E41"/>
<path id="Vector_60" d="M581.872 555.573C581.255 555.573 580.644 555.446 580.077 555.201C577.243 553.976 573.325 552.197 568.433 549.914C554.919 543.608 590.558 456.486 597.84 439.086C598.092 438.48 598.475 437.937 598.961 437.497L618.47 419.741C619.222 419.155 620.141 418.823 621.094 418.793C622.047 418.763 622.985 419.037 623.772 419.575C624.559 420.112 625.155 420.886 625.474 421.785C625.793 422.683 625.818 423.66 625.546 424.574C622.123 436.047 616.059 455.28 609.639 475.643C599.507 507.778 589.031 541.007 586.23 552.175C585.986 553.146 585.425 554.008 584.636 554.624C583.846 555.239 582.874 555.574 581.872 555.573L581.872 555.573Z" fill="#2F2E41"/>
<path id="Vector_61" d="M718.992 534.501C719.799 533.154 720.301 531.646 720.462 530.084C720.623 528.522 720.44 526.943 719.925 525.459C719.41 523.976 718.576 522.623 717.481 521.497C716.387 520.37 715.059 519.497 713.591 518.94L682.36 444.836L669.36 452.695L699.362 525.853C698.588 528.382 698.769 531.106 699.87 533.51C700.971 535.914 702.916 537.831 705.336 538.897C707.755 539.963 710.482 540.104 712.999 539.294C715.516 538.484 717.649 536.779 718.992 534.501V534.501Z" fill="#FFB8B8"/>
<path id="Vector_62" d="M673.1 476.05L655.883 437.73C655.126 436.044 654.714 434.223 654.673 432.375C654.631 430.527 654.961 428.689 655.642 426.971C656.323 425.252 657.342 423.688 658.638 422.37C659.935 421.052 661.482 420.008 663.189 419.299C664.896 418.589 666.728 418.23 668.577 418.241C670.425 418.252 672.253 418.634 673.951 419.364C675.65 420.093 677.184 421.156 678.465 422.49C679.745 423.823 680.745 425.4 681.405 427.126L696.642 466.967L673.1 476.05Z" fill="#2F2E41"/>
<path id="Vector_63" d="M652.41 358.477C653.294 358.606 654.196 358.439 654.977 358.004C655.757 357.568 656.372 356.888 656.727 356.067C657.054 355.236 657.187 354.341 657.115 353.45C657.043 352.559 656.768 351.697 656.311 350.929C655.381 349.399 654.083 348.126 652.535 347.226C650.753 346.035 648.692 345.326 646.553 345.168C645.487 345.098 644.417 345.258 643.417 345.638C642.418 346.017 641.511 346.607 640.76 347.367C640.026 348.147 639.542 349.127 639.369 350.183C639.196 351.239 639.342 352.322 639.788 353.295C640.686 355.027 642.57 355.998 644.407 356.657C648.049 357.962 651.928 358.472 655.784 358.152" fill="#2F2E41"/>
<path id="Vector_64" d="M661.144 384.961C657.317 386.075 657.525 384.013 655.427 380.624C653.329 377.235 650.601 373.247 646.621 373.459C643.359 373.633 641.087 376.596 638.762 378.891C634.618 382.98 628.602 385.57 622.915 384.321C617.228 383.073 612.54 377.206 613.789 371.519C614.206 369.939 614.943 368.46 615.954 367.176C616.966 365.892 618.23 364.829 619.669 364.053C622.559 362.519 625.733 361.591 628.994 361.327C636.212 360.497 643.524 361.262 650.414 363.567C655.17 365.163 659.951 367.744 662.318 372.167C664.685 376.59 666.757 382.99 662.144 384.961L661.144 384.961Z" fill="#2F2E41"/>
<path id="Vector_65" d="M649.032 345.807C645.789 341.697 647.01 335.22 650.79 331.596C654.569 327.973 660.189 326.843 665.405 327.304C670.572 327.825 675.512 329.695 679.729 332.727C683.946 335.759 687.291 339.846 689.43 344.579C692.725 352.118 692.698 360.742 695.679 368.411C697.268 372.5 699.677 376.22 702.757 379.342C705.838 382.464 709.525 384.922 713.592 386.566C717.659 388.209 722.019 389.003 726.404 388.898C730.789 388.792 735.106 387.791 739.089 385.954C744.277 383.562 749.217 378.878 748.921 373.172C752.201 385.819 746.293 400.285 735.098 407.02C728.541 410.964 720.775 412.304 713.178 413.225C708.228 413.826 703.139 414.273 698.308 413.035C691.549 411.304 685.89 406.315 682.463 400.238C679.037 394.16 677.689 387.077 677.636 380.1C677.596 374.665 678.307 369.226 677.931 363.804C677.555 358.382 675.925 352.773 671.995 349.019C668.064 345.264 661.431 344.029 657.117 347.336C655.383 348.665 654.113 350.605 652.161 351.586C650.209 352.566 647.125 351.804 646.994 349.623L649.032 345.807Z" fill="#2F2E41"/>
</g>
<path id="Vector_66" d="M780.297 722.032H473.003C472.687 722.031 472.385 721.906 472.163 721.682C471.94 721.459 471.815 721.157 471.815 720.842C471.815 720.527 471.94 720.224 472.163 720.001C472.385 719.778 472.687 719.652 473.003 719.651H780.297C780.612 719.652 780.914 719.778 781.136 720.001C781.359 720.224 781.484 720.527 781.484 720.842C781.484 721.157 781.359 721.459 781.136 721.682C780.914 721.906 780.612 722.031 780.297 722.032V722.032Z" fill="#3F3D56"/>
</g>
<defs>
<clipPath id="clip0">
<rect width="792.265" height="727.778" fill="white"/>
</clipPath>
</defs>
</svg>
